STARTFONT 2.1
COMMENT Exported by Fony v1.4.7
FONT u8g2_font_pereltje_icons_7
SIZE 9 96 54
FONTBOUNDINGBOX 16 8 0 0
STARTPROPERTIES 6
COPYRIGHT "Font created by Fenna Pel"
RESOLUTION_X 96
RESOLUTION_Y 54
FONT_ASCENT 9
FONT_DESCENT 0
DEFAULT_CHAR 0
ENDPROPERTIES
CHARS 41
STARTCHAR 043
ENCODING 43
SWIDTH 1152 0
DWIDTH 16 0
BBX 14 7 1 1
BITMAP
C00C
8024
8044
8084
9104
8A04
C40C
ENDCHAR
STARTCHAR 044
ENCODING 44
SWIDTH 1152 0
DWIDTH 16 0
BBX 16 9 0 0
BITMAP
FFFF
9FF9
BFED
BFDD
BFBD
B77D
BAFD
9DF9
FFFF
ENDCHAR
STARTCHAR 045
ENCODING 45
SWIDTH 1152 0
DWIDTH 16 0
BBX 14 7 1 1
BITMAP
C00C
8004
8004
8004
8004
8004
C00C
ENDCHAR
STARTCHAR 046
ENCODING 46
SWIDTH 1152 0
DWIDTH 16 0
BBX 16 9 0 0
BITMAP
FFFF
9FF9
BFFD
BFFD
BFFD
BFFD
BFFD
9FF9
FFFF
ENDCHAR
STARTCHAR 047
ENCODING 47
SWIDTH 1152 0
DWIDTH 16 0
BBX 0 0 0 0
BITMAP
ENDCHAR
STARTCHAR 048
ENCODING 48
SWIDTH 1152 0
DWIDTH 16 0
BBX 14 7 1 1
BITMAP
FFF8
8008
800C
800C
800C
8008
FFF8
ENDCHAR
STARTCHAR 049
ENCODING 49
SWIDTH 1152 0
DWIDTH 16 0
BBX 14 7 1 1
BITMAP
FFF8
8008
A00C
A00C
A00C
8008
FFF8
ENDCHAR
STARTCHAR 050
ENCODING 50
SWIDTH 1152 0
DWIDTH 16 0
BBX 14 7 1 1
BITMAP
FFF8
8008
A80C
A80C
A80C
8008
FFF8
ENDCHAR
STARTCHAR 051
ENCODING 51
SWIDTH 1152 0
DWIDTH 16 0
BBX 14 7 1 1
BITMAP
FFF8
8008
AA0C
AA0C
AA0C
8008
FFF8
ENDCHAR
STARTCHAR 052
ENCODING 52
SWIDTH 1152 0
DWIDTH 16 0
BBX 14 7 1 1
BITMAP
FFF8
8008
AA8C
AA8C
AA8C
8008
FFF8
ENDCHAR
STARTCHAR 053
ENCODING 53
SWIDTH 1152 0
DWIDTH 16 0
BBX 14 7 1 1
BITMAP
FFF8
8008
AAAC
AAAC
AAAC
8008
FFF8
ENDCHAR
STARTCHAR 054
ENCODING 54
SWIDTH 1152 0
DWIDTH 16 0
BBX 14 7 1 1
BITMAP
93B8
9424
9424
9338
90A4
90A4
6738
ENDCHAR
STARTCHAR 055
ENCODING 55
SWIDTH 1152 0
DWIDTH 16 0
BBX 0 0 0 0
BITMAP
ENDCHAR
STARTCHAR 056
ENCODING 56
SWIDTH 1152 0
DWIDTH 16 0
BBX 6 6 5 2
BITMAP
78
84
B4
B4
84
78
ENDCHAR
STARTCHAR 057
ENCODING 57
SWIDTH 1152 0
DWIDTH 16 0
BBX 16 9 0 0
BITMAP
FFFF
FC3F
FBDF
FA5F
FA5F
FBDF
FC3F
FFFF
FFFF
ENDCHAR
STARTCHAR 058
ENCODING 58
SWIDTH 1152 0
DWIDTH 16 0
BBX 6 6 5 2
BITMAP
78
84
84
84
84
78
ENDCHAR
STARTCHAR 059
ENCODING 59
SWIDTH 1152 0
DWIDTH 16 0
BBX 16 9 0 0
BITMAP
FFFF
FC3F
FBDF
FBDF
FBDF
FBDF
FC3F
FFFF
FFFF
ENDCHAR
STARTCHAR 060
ENCODING 60
SWIDTH 1152 0
DWIDTH 16 0
BBX 10 7 3 1
BITMAP
1800
3000
6000
FFC0
6000
3000
1800
ENDCHAR
STARTCHAR 061
ENCODING 61
SWIDTH 1152 0
DWIDTH 16 0
BBX 16 9 0 0
BITMAP
FFFF
FCFF
F9FF
F3FF
E007
F3FF
F9FF
FCFF
FFFF
ENDCHAR
STARTCHAR 062
ENCODING 62
SWIDTH 1152 0
DWIDTH 16 0
BBX 0 0 0 0
BITMAP
ENDCHAR
STARTCHAR 063
ENCODING 63
SWIDTH 1152 0
DWIDTH 16 0
BBX 0 0 0 0
BITMAP
ENDCHAR
STARTCHAR 064
ENCODING 64
SWIDTH 1152 0
DWIDTH 16 0
BBX 0 0 0 0
BITMAP
ENDCHAR
STARTCHAR 065
ENCODING 65
SWIDTH 1152 0
DWIDTH 16 0
BBX 14 7 1 1
BITMAP
0078
0084
0084
0084
C084
2078
A000
ENDCHAR
STARTCHAR 066
ENCODING 66
SWIDTH 1152 0
DWIDTH 16 0
BBX 13 7 1 1
BITMAP
0070
0088
0010
0020
C000
2020
A000
ENDCHAR
STARTCHAR 067
ENCODING 67
SWIDTH 1152 0
DWIDTH 16 0
BBX 13 7 1 1
BITMAP
F070
0888
E410
1220
CA00
2A20
AA00
ENDCHAR
STARTCHAR 068
ENCODING 68
SWIDTH 1152 0
DWIDTH 16 0
BBX 14 7 1 1
BITMAP
F078
0884
E4B4
12B4
CA84
2A78
AA00
ENDCHAR
STARTCHAR 069
ENCODING 69
SWIDTH 1152 0
DWIDTH 16 0
BBX 13 7 1 1
BITMAP
F088
08C8
E4A8
1298
CA88
2A00
AA00
ENDCHAR
STARTCHAR 070
ENCODING 70
SWIDTH 1152 0
DWIDTH 16 0
BBX 15 7 1 1
BITMAP
C044
A0CA
A04A
CA4A
8E44
8A40
8AE8
ENDCHAR
STARTCHAR 071
ENCODING 71
SWIDTH 1152 0
DWIDTH 16 0
BBX 15 7 1 1
BITMAP
C04E
A0A8
A02C
CA42
8E8C
8A80
8AE8
ENDCHAR
STARTCHAR 072
ENCODING 72
SWIDTH 1152 0
DWIDTH 16 0
BBX 15 7 1 1
BITMAP
C0A4
A0AA
A0AA
CAEA
8E24
8A20
8A28
ENDCHAR
STARTCHAR 073
ENCODING 73
SWIDTH 1152 0
DWIDTH 16 0
BBX 15 7 1 1
BITMAP
C044
A0CA
A04A
CA4A
8E4A
8A4A
8AE4
ENDCHAR
STARTCHAR 074
ENCODING 74
SWIDTH 1152 0
DWIDTH 16 0
BBX 14 7 1 1
BITMAP
8800
8988
8A54
8A50
8A50
5254
2188
ENDCHAR
STARTCHAR 075
ENCODING 75
SWIDTH 1152 0
DWIDTH 16 0
BBX 14 7 1 1
BITMAP
8980
8A40
CA54
AA54
9A48
8A54
8994
ENDCHAR
STARTCHAR 076
ENCODING 76
SWIDTH 1152 0
DWIDTH 16 0
BBX 10 7 3 1
BITMAP
E240
9240
9240
E3C0
C240
A240
9240
ENDCHAR
STARTCHAR 077
ENCODING 77
SWIDTH 1152 0
DWIDTH 16 0
BBX 13 7 1 1
BITMAP
F800
2000
2530
2AA8
2AB0
2AA0
2AA0
ENDCHAR
STARTCHAR 078
ENCODING 78
SWIDTH 1152 0
DWIDTH 16 0
BBX 13 5 1 1
BITMAP
CC50
AAA8
CCA8
88A8
8800
ENDCHAR
STARTCHAR 079
ENCODING 79
SWIDTH 1152 0
DWIDTH 16 0
BBX 11 7 2 1
BITMAP
0080
0080
CCC0
AAA0
CCC0
8800
8800
ENDCHAR
STARTCHAR 080
ENCODING 80
SWIDTH 1152 0
DWIDTH 16 0
BBX 14 7 1 1
BITMAP
A408
AA04
E60C
82A4
8CE8
00A0
00A0
ENDCHAR
STARTCHAR 081
ENCODING 81
SWIDTH 1152 0
DWIDTH 16 0
BBX 8 7 3 1
BITMAP
42
A4
48
10
22
45
82
ENDCHAR
STARTCHAR 082
ENCODING 82
SWIDTH 1152 0
DWIDTH 16 0
BBX 9 7 3 1
BITMAP
4700
A880
4800
0800
0800
0880
0700
ENDCHAR
STARTCHAR 083
ENCODING 83
SWIDTH 1152 0
DWIDTH 16 0
BBX 14 7 1 1
BITMAP
2000
4000
9C88
1154
1954
0554
1888
ENDCHAR
ENDFONT
